<svg version="1.1" id="Layer_1" xmlns="http://www.w3.org/2000/svg" xmlns:xlink="http://www.w3.org/1999/xlink" x="0px" y="0px"
	 width="100%" viewBox="0 0 1080 1350" enable-background="new 0 0 1080 1350" xml:space="preserve">
<path fill="#000000" opacity="1.000000" stroke="none" 
	d="
M460.000000,1351.000000 
	C306.666656,1351.000000 153.833328,1351.000000 1.000000,1351.000000 
	C1.000000,901.000000 1.000000,451.000000 1.000000,1.000000 
	C361.000000,1.000000 721.000000,1.000000 1081.000000,1.000000 
	C1081.000000,451.000000 1081.000000,901.000000 1081.000000,1351.000000 
	C874.166687,1351.000000 667.333313,1351.000000 460.000000,1351.000000 
M274.230194,693.221497 
	C274.822998,693.452515 275.594604,694.049500 275.982117,693.860168 
	C283.066620,690.399109 290.136017,686.903809 297.146179,683.294556 
	C307.880707,677.767700 318.567688,672.148499 329.274872,666.568481 
	C310.841919,717.540405 291.732178,767.851440 274.294342,819.030029 
	C313.659058,797.770752 350.815094,773.659424 387.334656,748.515198 
	C387.712433,748.777588 388.090179,749.039917 388.467926,749.302307 
	C384.588196,775.425903 380.708466,801.549500 376.828735,827.673035 
	C377.278870,828.008179 377.729004,828.343323 378.179138,828.678467 
	C389.296906,822.977417 398.884644,814.808228 409.332764,808.034973 
	C419.861603,801.209290 430.234222,794.142578 441.541595,786.604004 
	C439.216461,791.774597 439.790344,795.208557 443.139587,798.562195 
	C446.478577,801.905579 449.256348,805.824402 452.164368,809.580566 
	C463.558167,824.297546 474.839386,839.102173 486.292755,853.772461 
	C495.064575,865.007996 504.043335,876.081909 512.908997,887.244446 
	C518.675781,894.505188 524.476685,901.740723 530.132446,909.087402 
	C536.901550,917.880127 543.566284,926.753967 550.206299,935.644958 
	C552.841125,939.172913 555.026855,938.291077 557.141846,935.213806 
	C559.254517,932.139832 561.171997,928.916016 563.464478,925.984253 
	C570.972900,916.382019 578.677673,906.933289 586.185059,897.330322 
	C594.234863,887.033508 602.091187,876.585388 610.136475,866.284973 
	C616.404053,858.260315 622.871033,850.391602 629.179321,842.398254 
	C639.168823,829.740173 649.417419,817.266724 658.890930,804.231506 
	C662.424011,799.370178 670.822937,795.946533 665.679688,786.969604 
	C668.891479,788.991028 671.266052,791.167297 673.903870,792.955017 
	C685.679382,800.936035 697.509460,808.837341 709.363159,816.702026 
	C714.599731,820.176331 719.905884,823.549988 725.263306,826.833923 
	C726.225220,827.423584 727.592468,827.351807 728.772583,827.585388 
	C728.872253,826.452820 729.171753,825.295837 729.037415,824.191772 
	C728.407043,819.012817 727.698425,813.842407 726.941589,808.680115 
	C725.397095,798.144043 723.732483,787.625061 722.251892,777.080200 
	C720.960144,767.880127 719.853210,758.654175 718.470093,747.931335 
	C755.839600,774.250305 793.401672,797.816528 832.086609,819.533203 
	C832.511292,819.089478 832.935913,818.645752 833.360535,818.201965 
	C814.478943,767.940308 795.597351,717.678589 776.332214,666.396118 
	C795.405823,675.843689 813.297546,684.705872 831.189331,693.568115 
	C831.723267,693.052124 832.257263,692.536194 832.791199,692.020264 
	C806.971924,643.248657 780.543335,594.799561 753.648254,546.128174 
	C765.023438,545.593140 775.879578,545.082520 786.735657,544.571899 
	C787.179199,544.236084 787.622681,543.900208 788.066162,543.564331 
	C772.197327,525.661011 755.709595,508.290192 740.032959,490.343628 
	C746.397827,487.470978 752.849609,484.559082 759.301453,481.647186 
	C759.309204,481.118103 759.317017,480.589020 759.324768,480.059906 
	C758.028442,479.403168 756.794373,478.546997 755.426270,478.120422 
	C741.295837,473.714600 727.147156,469.367004 712.996765,465.025269 
	C696.688171,460.021301 680.383362,455.004822 664.057678,450.057159 
	C645.398743,444.402405 627.003784,437.854431 607.179688,436.889893 
	C594.617798,436.278687 582.144043,433.783081 569.583069,433.242859 
	C549.935669,432.397888 530.354065,433.853363 510.746033,435.801147 
	C495.445892,437.320984 480.397522,439.257568 465.687012,443.792236 
	C448.067230,449.223816 430.361359,454.375458 412.716278,459.725891 
	C392.664948,465.805908 372.633667,471.952545 352.616913,478.145355 
	C351.351440,478.536835 350.286926,479.577698 349.128906,480.316498 
	C349.921173,481.481537 350.457733,483.239471 351.549408,483.710266 
	C356.615723,485.895233 361.835876,487.723358 367.583893,489.899994 
	C358.617065,500.250946 350.027344,510.505585 341.053375,520.412170 
	C334.575897,527.562744 327.543732,534.209229 320.920105,541.232544 
	C320.452728,541.728149 320.946381,544.046326 321.653687,544.510498 
	C322.620392,545.144958 324.220062,544.839233 325.550110,544.891846 
	C334.694061,545.253723 343.838501,545.604187 353.265991,545.969299 
	C349.639008,553.159973 346.519714,559.821777 342.977966,566.250793 
	C338.007355,575.273621 332.685486,584.102173 327.583130,593.053345 
	C322.897125,601.274231 318.201202,609.492432 313.693542,617.811401 
	C307.941101,628.427490 302.379852,639.147156 296.724365,649.815857 
	C289.186157,664.036316 281.636566,678.250671 274.230194,693.221497 
z"/>
<path fill="#F8F6F4" opacity="1.000000" stroke="none" 
	d="
M274.161011,692.844604 
	C281.636566,678.250671 289.186157,664.036316 296.724365,649.815857 
	C302.379852,639.147156 307.941101,628.427490 313.693542,617.811401 
	C318.201202,609.492432 322.897125,601.274231 327.583130,593.053345 
	C332.685486,584.102173 338.007355,575.273621 342.977966,566.250793 
	C346.519714,559.821777 349.639008,553.159973 353.265991,545.969299 
	C343.838501,545.604187 334.694061,545.253723 325.550110,544.891846 
	C324.220062,544.839233 322.620392,545.144958 321.653687,544.510498 
	C320.946381,544.046326 320.452728,541.728149 320.920105,541.232544 
	C327.543732,534.209229 334.575897,527.562744 341.053375,520.412170 
	C350.027344,510.505585 358.617065,500.250946 367.583893,489.899994 
	C361.835876,487.723358 356.615723,485.895233 351.549408,483.710266 
	C350.457733,483.239471 349.921173,481.481537 349.128906,480.316498 
	C350.286926,479.577698 351.351440,478.536835 352.616913,478.145355 
	C372.633667,471.952545 392.664948,465.805908 412.716278,459.725891 
	C430.361359,454.375458 448.067230,449.223816 465.687012,443.792236 
	C480.397522,439.257568 495.445892,437.320984 510.746033,435.801147 
	C530.354065,433.853363 549.935669,432.397888 569.583069,433.242859 
	C582.144043,433.783081 594.617798,436.278687 607.179688,436.889893 
	C627.003784,437.854431 645.398743,444.402405 664.057678,450.057159 
	C680.383362,455.004822 696.688171,460.021301 712.996765,465.025269 
	C727.147156,469.367004 741.295837,473.714600 755.426270,478.120422 
	C756.794373,478.546997 758.028442,479.403168 759.324768,480.059906 
	C759.317017,480.589020 759.309204,481.118103 759.301453,481.647186 
	C752.849609,484.559082 746.397827,487.470978 740.032959,490.343628 
	C755.709595,508.290192 772.197327,525.661011 788.066162,543.564331 
	C787.622681,543.900208 787.179199,544.236084 786.735657,544.571899 
	C775.879578,545.082520 765.023438,545.593140 753.648254,546.128174 
	C780.543335,594.799561 806.971924,643.248657 832.791199,692.020264 
	C832.257263,692.536194 831.723267,693.052124 831.189331,693.568115 
	C813.297546,684.705872 795.405823,675.843689 776.332214,666.396118 
	C795.597351,717.678589 814.478943,767.940308 833.360535,818.201965 
	C832.935913,818.645752 832.511292,819.089478 832.086609,819.533203 
	C793.401672,797.816528 755.839600,774.250305 718.470093,747.931335 
	C719.853210,758.654175 720.960144,767.880127 722.251892,777.080200 
	C723.732483,787.625061 725.397095,798.144043 726.941589,808.680115 
	C727.698425,813.842407 728.407043,819.012817 729.037415,824.191772 
	C729.171753,825.295837 728.872253,826.452820 728.772583,827.585388 
	C727.592468,827.351807 726.225220,827.423584 725.263306,826.833923 
	C719.905884,823.549988 714.599731,820.176331 709.363159,816.702026 
	C697.509460,808.837341 685.679382,800.936035 673.903870,792.955017 
	C671.266052,791.167297 668.891479,788.991028 665.679688,786.969604 
	C670.822937,795.946533 662.424011,799.370178 658.890930,804.231506 
	C649.417419,817.266724 639.168823,829.740173 629.179321,842.398254 
	C622.871033,850.391602 616.404053,858.260315 610.136475,866.284973 
	C602.091187,876.585388 594.234863,887.033508 586.185059,897.330322 
	C578.677673,906.933289 570.972900,916.382019 563.464478,925.984253 
	C561.171997,928.916016 559.254517,932.139832 557.141846,935.213806 
	C555.026855,938.291077 552.841125,939.172913 550.206299,935.644958 
	C543.566284,926.753967 536.901550,917.880127 530.132446,909.087402 
	C524.476685,901.740723 518.675781,894.505188 512.908997,887.244446 
	C504.043335,876.081909 495.064575,865.007996 486.292755,853.772461 
	C474.839386,839.102173 463.558167,824.297546 452.164368,809.580566 
	C449.256348,805.824402 446.478577,801.905579 443.139587,798.562195 
	C439.790344,795.208557 439.216461,791.774597 441.541595,786.604004 
	C430.234222,794.142578 419.861603,801.209290 409.332764,808.034973 
	C398.884644,814.808228 389.296906,822.977417 378.179138,828.678467 
	C377.729004,828.343323 377.278870,828.008179 376.828735,827.673035 
	C380.708466,801.549500 384.588196,775.425903 388.467926,749.302307 
	C388.090179,749.039917 387.712433,748.777588 387.334656,748.515198 
	C350.815094,773.659424 313.659058,797.770752 274.294342,819.030029 
	C291.732178,767.851440 310.841919,717.540405 329.274872,666.568481 
	C318.567688,672.148499 307.880707,677.767700 297.146179,683.294556 
	C290.136017,686.903809 283.066620,690.399109 275.982117,693.860168 
	C275.594604,694.049500 274.822998,693.452515 274.161011,692.844604 
M478.035706,562.556946 
	C478.256012,562.513428 478.476349,562.469971 478.696655,562.426453 
	C478.524780,562.229614 478.352905,562.032776 477.814575,561.276794 
	C476.799713,560.815063 475.784851,560.353271 474.769989,559.891541 
	C474.615845,560.275330 474.461700,560.659180 474.307556,561.043030 
	C475.460754,561.446167 476.613983,561.849304 478.035706,562.556946 
M633.350159,558.989746 
	C632.498047,559.583740 631.645874,560.177795 630.120911,560.965271 
	C625.733459,563.965698 621.346008,566.966187 616.658936,570.103699 
	C616.790649,570.090088 616.922302,570.076477 617.789978,570.131409 
	C622.295837,567.223572 626.801697,564.315735 631.936646,561.292297 
	C632.996948,560.606934 634.057190,559.921570 635.884277,559.045715 
	C636.425354,558.528503 636.966492,558.011353 637.507568,557.494141 
	C637.260315,557.207397 637.013000,556.920593 636.765747,556.633789 
	C635.840515,557.388306 634.915283,558.142883 633.350159,558.989746 
M471.102112,558.708862 
	C471.655396,558.750610 472.208710,558.792358 472.761993,558.834045 
	C472.453064,558.374023 472.144135,557.913940 471.376129,556.899597 
	C441.646729,536.273193 411.917328,515.646790 382.009552,494.896667 
	C370.716888,507.156982 360.162109,518.616211 348.633820,531.132324 
	C351.646454,531.577881 353.423859,531.992126 355.217316,532.080566 
	C364.400818,532.533203 373.527863,532.908813 381.718079,538.054138 
	C386.927124,541.326599 392.302094,544.427063 397.883179,546.994934 
	C407.562256,551.448303 415.328186,557.807922 420.672058,567.115112 
	C422.202576,569.780701 424.323822,572.100769 426.075592,574.647095 
	C429.531006,579.669983 432.716095,584.895874 436.437195,589.709900 
	C437.815399,591.492981 440.385651,592.354675 442.412292,593.636536 
	C442.745239,593.189636 443.078186,592.742737 443.411133,592.295837 
	C435.243622,581.231812 434.186981,567.996521 431.586670,555.103943 
	C413.929871,546.797852 391.559540,531.323120 390.302399,526.146729 
	C396.502808,528.506470 402.444092,530.836609 408.434631,533.032227 
	C418.876160,536.859131 429.463806,540.315308 439.774963,544.462158 
	C450.275574,548.685181 460.516571,553.553772 471.102112,558.708862 
M582.623291,878.074829 
	C583.412292,877.539429 584.422852,877.166443 584.953857,876.442017 
	C588.116882,872.126343 590.979431,867.579468 594.294495,863.388428 
	C603.903198,851.240967 613.784607,839.308777 623.357544,827.133667 
	C632.095581,816.020386 640.486267,804.633911 649.227783,793.523376 
	C651.115295,791.124329 651.461975,789.389709 650.216248,786.472839 
	C644.495361,773.077271 639.163147,759.516174 633.619141,746.044312 
	C629.347534,735.664490 624.955505,725.334290 620.640808,714.972168 
	C616.435913,704.873840 612.099609,694.825745 608.134460,684.633728 
	C605.805847,678.648376 609.876099,673.106995 616.617737,672.358398 
	C618.075562,675.275146 619.696350,678.105164 620.947144,681.090210 
	C627.269531,696.179138 633.461487,711.322571 639.766907,726.418579 
	C644.542053,737.850830 649.446533,749.229004 654.234497,760.656006 
	C655.720703,764.202881 657.777283,766.970337 661.194641,769.127991 
	C672.354187,776.174133 683.280518,783.589966 694.288208,790.876221 
	C699.894592,794.587219 705.483093,798.325073 712.039612,802.689880 
	C712.039612,799.808105 712.187500,798.501221 712.017151,797.237244 
	C709.703491,780.068909 707.615967,762.862244 704.807983,745.774170 
	C704.110352,741.528625 704.815247,736.918335 700.806763,732.954285 
	C679.070557,711.459534 657.766479,689.527893 636.302490,667.757629 
	C630.769775,662.145996 630.755005,662.170959 637.682495,658.783752 
	C638.555176,658.356995 639.340515,657.473267 640.217529,657.398010 
	C641.562744,657.282654 643.249878,657.254089 644.264709,657.953491 
	C646.808044,659.706421 649.230530,661.717896 651.388916,663.930603 
	C658.057068,670.766663 664.449829,677.874329 671.194153,684.632324 
	C678.107483,691.559692 685.748108,697.802063 692.298889,705.042358 
	C708.805481,723.286438 727.893433,738.351440 748.354736,751.757996 
	C760.130188,759.473450 772.222900,766.706421 784.209656,774.096741 
	C791.150635,778.376038 798.164612,782.536865 805.145691,786.750977 
	C805.506042,786.424622 805.866455,786.098267 806.226807,785.771912 
	C805.847107,784.652466 805.507019,783.517761 805.081238,782.416138 
	C802.062561,774.604980 798.910461,766.843140 796.019348,758.985229 
	C789.581238,741.486938 783.299377,723.931213 776.899109,706.418884 
	C772.289978,693.807373 767.447266,681.279236 762.992493,668.614136 
	C760.571228,661.730408 757.673157,656.247253 749.997681,653.176086 
	C737.712524,648.260376 726.060059,641.767029 714.115784,635.991089 
	C712.399475,635.161133 710.581360,634.151123 708.751587,634.015259 
	C701.499146,633.476746 694.219116,633.319946 686.958557,632.872620 
	C684.637085,632.729614 682.344116,632.125610 679.363098,631.617371 
	C681.582764,627.002930 683.466003,623.087891 685.481262,618.898376 
	C694.047852,619.280701 702.607910,619.654724 711.166504,620.061035 
	C711.789246,620.090637 712.445984,620.257690 713.011108,620.522461 
	C732.532715,629.672485 752.063477,638.803345 771.551147,648.025146 
	C780.931335,652.463928 790.227844,657.079468 799.562256,661.614929 
	C799.833618,661.240356 800.105042,660.865784 800.376404,660.491211 
	C779.634155,622.429138 758.891968,584.367065 738.148682,546.302979 
	C730.935852,549.904907 724.699219,552.623840 718.871643,556.040527 
	C713.032043,559.464294 706.682556,562.738220 702.204590,567.596741 
	C695.394165,574.985962 689.985229,583.670715 684.019104,591.833069 
	C679.481689,598.040710 675.744446,604.846558 666.762268,606.051331 
	C658.771240,607.123169 650.959229,609.469421 642.999451,610.859070 
	C638.834534,611.586121 634.171997,612.633484 630.347412,611.488281 
	C622.035645,608.999512 614.112854,605.207642 606.042175,601.921204 
	C604.451416,601.273438 602.910767,600.502563 601.123230,599.686340 
	C600.619568,606.080688 600.158081,611.939636 599.576782,619.319763 
	C598.245056,617.482788 597.318298,616.711914 597.049500,615.756104 
	C593.947144,604.725220 591.644287,593.404419 582.686768,585.037354 
	C576.558472,579.312988 571.017761,572.947449 564.763062,567.375183 
	C561.168274,564.172668 561.033630,561.523071 562.921631,557.354431 
	C567.941284,546.271057 572.420532,534.943604 577.157104,523.731201 
	C584.115784,507.258545 591.096863,490.795349 598.097412,474.340454 
	C601.400635,466.576233 604.771545,458.840790 608.250122,450.771393 
	C571.222656,445.562500 535.180542,445.451202 498.685150,450.995026 
	C502.207062,458.463348 505.753143,465.367676 508.767456,472.496765 
	C516.143127,489.941101 523.286987,507.483582 530.497375,524.997559 
	C535.156433,536.314392 539.772156,547.648926 544.398499,558.979187 
	C545.646912,562.036743 545.243103,564.626953 542.627808,566.958801 
	C539.716125,569.554932 537.259888,572.678772 534.263489,575.160095 
	C520.998230,586.145203 512.668152,599.999268 509.821106,617.151306 
	C509.197845,617.150635 508.574585,617.149963 507.951294,617.149292 
	C507.316010,611.419556 506.680725,605.689819 506.017548,599.708740 
	C500.261292,602.462830 495.373840,605.416321 490.088501,607.172058 
	C483.674835,609.302612 476.775482,612.155151 470.353912,611.599854 
	C458.805603,610.601379 447.433167,607.401794 436.045654,604.860229 
	C433.933228,604.388794 431.523193,603.133728 430.226501,601.476562 
	C423.142487,592.423035 416.417999,583.089294 409.452759,573.941101 
	C406.609161,570.206360 404.124420,565.647522 400.339203,563.288025 
	C390.555206,557.189087 380.138000,552.105835 369.164917,546.180237 
	C348.203003,584.506165 327.428680,622.489136 306.028748,661.615845 
	C309.483337,660.449585 311.646240,659.937012 313.619019,659.016907 
	C323.593353,654.364441 333.546082,649.663574 343.453827,644.871033 
	C357.992371,637.838501 372.479980,630.700928 387.004913,623.640076 
	C389.607849,622.374756 392.214325,620.481873 394.943604,620.230774 
	C402.977386,619.491455 411.072510,619.390808 419.147064,619.161011 
	C420.092255,619.134094 421.630371,619.613586 421.919891,620.280823 
	C423.437469,623.778137 424.641296,627.411560 425.954132,630.997681 
	C423.054199,631.635193 420.181000,632.502014 417.246643,632.844299 
	C414.449310,633.170532 411.570312,632.755493 408.759277,633.014526 
	C404.409485,633.415161 399.694427,633.195190 395.825409,634.852234 
	C383.480743,640.139160 371.562378,646.414551 359.267792,651.827637 
	C351.052307,655.444824 346.243744,660.841003 343.589600,669.768433 
	C339.013367,685.160706 332.942505,700.116089 327.320282,715.188171 
	C319.253052,736.814819 311.023987,758.381165 302.869415,779.975281 
	C302.122986,781.951965 301.416351,783.943665 300.691254,785.928406 
	C301.128174,786.294617 301.565125,786.660828 302.002045,787.027039 
	C307.321655,783.690979 312.659973,780.384399 317.957214,777.013123 
	C333.047180,767.409790 348.331024,758.090881 363.132202,748.060364 
	C374.543518,740.327087 386.308746,733.098206 395.974915,722.847900 
	C407.554962,710.567932 420.136932,699.236633 432.187469,687.395264 
	C440.955811,678.779175 449.554352,669.990417 458.251221,661.301331 
	C463.018250,656.538513 469.142914,656.192627 473.977112,660.634705 
	C474.614075,661.220032 474.620331,663.611755 473.984497,664.286438 
	C468.555786,670.046936 462.913696,675.606445 457.330658,681.221436 
	C450.523407,688.067566 443.679840,694.877991 436.909912,701.760864 
	C429.001099,709.801697 421.406189,718.170959 413.202271,725.895691 
	C406.591614,732.120178 401.825653,738.366760 401.630463,748.307434 
	C401.417694,759.142334 398.939880,769.933167 397.442352,780.742249 
	C396.518188,787.412964 395.580688,794.081787 394.471161,802.026062 
	C399.308838,799.214294 403.049347,797.289307 406.528931,794.972351 
	C418.239136,787.174988 429.605347,778.824402 441.617035,771.531860 
	C447.484863,767.969360 452.122528,764.608276 453.468475,757.329590 
	C454.262146,753.037598 456.866028,749.081421 458.648621,744.971130 
	C465.787872,728.509521 472.947327,712.056702 480.050934,695.579712 
	C483.032684,688.663269 485.847229,681.674500 488.860077,674.772034 
	C489.321075,673.715881 490.332642,672.333130 491.282227,672.160339 
	C494.498383,671.575134 500.823395,678.827209 499.903107,682.043701 
	C499.029968,685.095398 497.793213,688.059937 496.519379,690.976807 
	C493.355133,698.222290 489.912018,705.349487 486.877289,712.647461 
	C476.505768,737.589355 466.224945,762.569397 456.062622,787.597046 
	C455.463287,789.072998 455.559570,791.567078 456.441528,792.782043 
	C460.362488,798.183472 464.688202,803.291077 468.866882,808.505432 
	C476.082520,817.509460 483.368164,826.458557 490.493347,835.533569 
	C497.868530,844.926880 505.129456,854.411011 512.362366,863.914795 
	C518.398254,871.845581 524.197083,879.959412 530.333984,887.809998 
	C535.193909,894.026978 540.407349,899.967712 546.194336,906.907227 
	C546.522095,901.446045 547.050293,897.204651 546.973083,892.974304 
	C546.816467,884.399658 546.047668,875.831421 546.035461,867.259766 
	C545.996948,840.334717 546.169800,813.409241 546.338501,786.484375 
	C546.352295,784.290344 546.956482,782.099915 547.441406,778.876526 
	C549.901855,782.350708 551.577759,784.717163 553.427002,787.328369 
	C555.306885,784.772827 557.077881,782.365234 558.848877,779.957703 
	C559.320679,780.000305 559.792480,780.042908 560.264282,780.085571 
	C562.391907,793.976929 560.055725,808.038452 560.564575,821.990723 
	C561.085754,836.282898 560.941101,850.600891 561.004211,864.907898 
	C561.064514,878.578003 561.017212,892.248596 561.017212,907.231323 
	C568.392700,897.197998 575.235718,887.889038 582.623291,878.074829 
M620.708801,457.157349 
	C615.655518,469.431396 610.775574,481.780426 605.510620,493.962982 
	C596.273682,515.336182 586.749451,536.585205 577.549377,557.973938 
	C576.973083,559.313721 577.581848,561.974976 578.632690,563.054688 
	C582.155457,566.674194 586.128906,569.855103 590.260986,573.495667 
	C632.528320,541.650818 675.539551,510.962341 721.509705,482.546814 
	C718.482178,481.293762 716.904785,480.477386 715.232971,479.975220 
	C703.497864,476.450104 691.739502,473.002716 679.995911,469.505737 
	C662.018677,464.152649 644.028137,458.842651 626.091431,453.356720 
	C622.881592,452.375000 621.486816,453.368988 620.708801,457.157349 
M440.630981,518.997925 
	C466.187836,536.948975 491.744690,554.899963 517.197205,572.777710 
	C519.824036,570.912598 522.883484,569.173767 525.391235,566.841675 
	C528.073669,564.347168 531.840881,561.953552 529.782715,557.222839 
	C524.279663,544.573975 518.628662,531.988892 513.197632,519.309448 
	C507.068207,504.999573 501.169586,490.590973 495.062714,476.271332 
	C491.685516,468.352448 488.087555,460.527740 484.447174,452.341309 
	C451.479340,462.397705 419.124451,472.267090 386.146301,482.326599 
	C404.640533,494.774231 422.326691,506.677979 440.630981,518.997925 
M701.963989,511.557159 
	C696.390930,515.104370 690.757080,518.560486 685.261780,522.224365 
	C679.749023,525.899841 674.372375,529.779602 668.939697,533.575012 
	C663.365906,537.469055 657.513672,541.029907 652.308411,545.366821 
	C647.558716,549.324219 640.695801,550.795593 636.818665,557.534485 
	C651.003479,551.547729 663.920776,545.742249 677.106995,540.630554 
	C690.166138,535.568176 703.496521,531.205566 717.070740,526.407776 
	C716.816833,527.489563 716.897461,528.619324 716.425293,528.943115 
	C702.872070,538.237854 689.263306,547.451782 675.511780,556.781738 
	C674.423828,562.247803 673.651733,568.742004 671.760803,574.892212 
	C669.865112,581.057800 666.852966,586.880188 663.806824,594.091980 
	C666.260254,592.805908 668.409058,592.377075 669.353577,591.074707 
	C677.408691,579.968689 685.168579,568.648743 693.216309,557.537231 
	C694.695618,555.494629 696.884827,553.778809 699.083740,552.485962 
	C703.063232,550.146301 707.320312,548.283997 711.419739,546.142334 
	C722.478088,540.365112 732.372131,531.725830 746.174500,532.867920 
	C749.675537,533.157654 753.289001,532.088928 758.384583,531.452881 
	C747.314331,519.059570 736.805847,507.295258 726.084290,495.292297 
	C717.882507,500.737915 710.160339,505.865112 701.963989,511.557159 
M446.942322,566.823425 
	C448.140808,578.606018 452.327087,588.576233 463.617889,594.204895 
	C475.685120,600.220703 486.726044,596.418152 498.462616,588.874634 
	C481.057159,579.489319 463.983154,570.282776 446.909149,561.076233 
	C446.553101,561.507202 446.197052,561.938171 445.841003,562.369202 
	C446.086609,563.594788 446.332184,564.820312 446.942322,566.823425 
M643.431763,594.141907 
	C656.792542,587.798401 660.787170,572.489014 660.342468,560.890625 
	C642.841553,570.329956 625.793640,579.524902 608.309265,588.955322 
	C619.886292,595.699707 630.649536,600.228271 643.431763,594.141907 
M488.235474,570.110962 
	C488.943909,570.331482 489.652374,570.552063 490.360840,570.772583 
	C490.549255,570.405579 490.737671,570.038635 490.926086,569.671631 
	C487.627808,567.491577 484.329529,565.311462 481.031250,563.131409 
	C480.726074,563.595459 480.420898,564.059570 480.115723,564.523621 
	C482.619751,566.280640 485.123779,568.037598 488.235474,570.110962 
M492.467804,571.567139 
	C492.467804,571.567139 492.414520,571.480042 492.467804,571.567139 
z"/>
<path fill="#000000" opacity="1.000000" stroke="none" 
	d="
M582.351013,878.327515 
	C575.235718,887.889038 568.392700,897.197998 561.017212,907.231323 
	C561.017212,892.248596 561.064514,878.578003 561.004211,864.907898 
	C560.941101,850.600891 561.085754,836.282898 560.564575,821.990723 
	C560.055725,808.038452 562.391907,793.976929 560.264282,780.085571 
	C559.792480,780.042908 559.320679,780.000305 558.848877,779.957703 
	C557.077881,782.365234 555.306885,784.772827 553.427002,787.328369 
	C551.577759,784.717163 549.901855,782.350708 547.441406,778.876526 
	C546.956482,782.099915 546.352295,784.290344 546.338501,786.484375 
	C546.169800,813.409241 545.996948,840.334717 546.035461,867.259766 
	C546.047668,875.831421 546.816467,884.399658 546.973083,892.974304 
	C547.050293,897.204651 546.522095,901.446045 546.194336,906.907227 
	C540.407349,899.967712 535.193909,894.026978 530.333984,887.809998 
	C524.197083,879.959412 518.398254,871.845581 512.362366,863.914795 
	C505.129456,854.411011 497.868530,844.926880 490.493347,835.533569 
	C483.368164,826.458557 476.082520,817.509460 468.866882,808.505432 
	C464.688202,803.291077 460.362488,798.183472 456.441528,792.782043 
	C455.559570,791.567078 455.463287,789.072998 456.062622,787.597046 
	C466.224945,762.569397 476.505768,737.589355 486.877289,712.647461 
	C489.912018,705.349487 493.355133,698.222290 496.519379,690.976807 
	C497.793213,688.059937 499.029968,685.095398 499.903107,682.043701 
	C500.823395,678.827209 494.498383,671.575134 491.282227,672.160339 
	C490.332642,672.333130 489.321075,673.715881 488.860077,674.772034 
	C485.847229,681.674500 483.032684,688.663269 480.050934,695.579712 
	C472.947327,712.056702 465.787872,728.509521 458.648621,744.971130 
	C456.866028,749.081421 454.262146,753.037598 453.468475,757.329590 
	C452.122528,764.608276 447.484863,767.969360 441.617035,771.531860 
	C429.605347,778.824402 418.239136,787.174988 406.528931,794.972351 
	C403.049347,797.289307 399.308838,799.214294 394.471161,802.026062 
	C395.580688,794.081787 396.518188,787.412964 397.442352,780.742249 
	C398.939880,769.933167 401.417694,759.142334 401.630463,748.307434 
	C401.825653,738.366760 406.591614,732.120178 413.202271,725.895691 
	C421.406189,718.170959 429.001099,709.801697 436.909912,701.760864 
	C443.679840,694.877991 450.523407,688.067566 457.330658,681.221436 
	C462.913696,675.606445 468.555786,670.046936 473.984497,664.286438 
	C474.620331,663.611755 474.614075,661.220032 473.977112,660.634705 
	C469.142914,656.192627 463.018250,656.538513 458.251221,661.301331 
	C449.554352,669.990417 440.955811,678.779175 432.187469,687.395264 
	C420.136932,699.236633 407.554962,710.567932 395.974915,722.847900 
	C386.308746,733.098206 374.543518,740.327087 363.132202,748.060364 
	C348.331024,758.090881 333.047180,767.409790 317.957214,777.013123 
	C312.659973,780.384399 307.321655,783.690979 302.002045,787.027039 
	C301.565125,786.660828 301.128174,786.294617 300.691254,785.928406 
	C301.416351,783.943665 302.122986,781.951965 302.869415,779.975281 
	C311.023987,758.381165 319.253052,736.814819 327.320282,715.188171 
	C332.942505,700.116089 339.013367,685.160706 343.589600,669.768433 
	C346.243744,660.841003 351.052307,655.444824 359.267792,651.827637 
	C371.562378,646.414551 383.480743,640.139160 395.825409,634.852234 
	C399.694427,633.195190 404.409485,633.415161 408.759277,633.014526 
	C411.570312,632.755493 414.449310,633.170532 417.246643,632.844299 
	C420.181000,632.502014 423.054199,631.635193 425.954132,630.997681 
	C424.641296,627.411560 423.437469,623.778137 421.919891,620.280823 
	C421.630371,619.613586 420.092255,619.134094 419.147064,619.161011 
	C411.072510,619.390808 402.977386,619.491455 394.943604,620.230774 
	C392.214325,620.481873 389.607849,622.374756 387.004913,623.640076 
	C372.479980,630.700928 357.992371,637.838501 343.453827,644.871033 
	C333.546082,649.663574 323.593353,654.364441 313.619019,659.016907 
	C311.646240,659.937012 309.483337,660.449585 306.028748,661.615845 
	C327.428680,622.489136 348.203003,584.506165 369.164917,546.180237 
	C380.138000,552.105835 390.555206,557.189087 400.339203,563.288025 
	C404.124420,565.647522 406.609161,570.206360 409.452759,573.941101 
	C416.417999,583.089294 423.142487,592.423035 430.226501,601.476562 
	C431.523193,603.133728 433.933228,604.388794 436.045654,604.860229 
	C447.433167,607.401794 458.805603,610.601379 470.353912,611.599854 
	C476.775482,612.155151 483.674835,609.302612 490.088501,607.172058 
	C495.373840,605.416321 500.261292,602.462830 506.017548,599.708740 
	C506.680725,605.689819 507.316010,611.419556 507.951294,617.149292 
	C508.574585,617.149963 509.197845,617.150635 509.821106,617.151306 
	C512.668152,599.999268 520.998230,586.145203 534.263489,575.160095 
	C537.259888,572.678772 539.716125,569.554932 542.627808,566.958801 
	C545.243103,564.626953 545.646912,562.036743 544.398499,558.979187 
	C539.772156,547.648926 535.156433,536.314392 530.497375,524.997559 
	C523.286987,507.483582 516.143127,489.941101 508.767456,472.496765 
	C505.753143,465.367676 502.207062,458.463348 498.685150,450.995026 
	C535.180542,445.451202 571.222656,445.562500 608.250122,450.771393 
	C604.771545,458.840790 601.400635,466.576233 598.097412,474.340454 
	C591.096863,490.795349 584.115784,507.258545 577.157104,523.731201 
	C572.420532,534.943604 567.941284,546.271057 562.921631,557.354431 
	C561.033630,561.523071 561.168274,564.172668 564.763062,567.375183 
	C571.017761,572.947449 576.558472,579.312988 582.686768,585.037354 
	C591.644287,593.404419 593.947144,604.725220 597.049500,615.756104 
	C597.318298,616.711914 598.245056,617.482788 599.576782,619.319763 
	C600.158081,611.939636 600.619568,606.080688 601.123230,599.686340 
	C602.910767,600.502563 604.451416,601.273438 606.042175,601.921204 
	C614.112854,605.207642 622.035645,608.999512 630.347412,611.488281 
	C634.171997,612.633484 638.834534,611.586121 642.999451,610.859070 
	C650.959229,609.469421 658.771240,607.123169 666.762268,606.051331 
	C675.744446,604.846558 679.481689,598.040710 684.019104,591.833069 
	C689.985229,583.670715 695.394165,574.985962 702.204590,567.596741 
	C706.682556,562.738220 713.032043,559.464294 718.871643,556.040527 
	C724.699219,552.623840 730.935852,549.904907 738.148682,546.302979 
	C758.891968,584.367065 779.634155,622.429138 800.376404,660.491211 
	C800.105042,660.865784 799.833618,661.240356 799.562256,661.614929 
	C790.227844,657.079468 780.931335,652.463928 771.551147,648.025146 
	C752.063477,638.803345 732.532715,629.672485 713.011108,620.522461 
	C712.445984,620.257690 711.789246,620.090637 711.166504,620.061035 
	C702.607910,619.654724 694.047852,619.280701 685.481262,618.898376 
	C683.466003,623.087891 681.582764,627.002930 679.363098,631.617371 
	C682.344116,632.125610 684.637085,632.729614 686.958557,632.872620 
	C694.219116,633.319946 701.499146,633.476746 708.751587,634.015259 
	C710.581360,634.151123 712.399475,635.161133 714.115784,635.991089 
	C726.060059,641.767029 737.712524,648.260376 749.997681,653.176086 
	C757.673157,656.247253 760.571228,661.730408 762.992493,668.614136 
	C767.447266,681.279236 772.289978,693.807373 776.899109,706.418884 
	C783.299377,723.931213 789.581238,741.486938 796.019348,758.985229 
	C798.910461,766.843140 802.062561,774.604980 805.081238,782.416138 
	C805.507019,783.517761 805.847107,784.652466 806.226807,785.771912 
	C805.866455,786.098267 805.506042,786.424622 805.145691,786.750977 
	C798.164612,782.536865 791.150635,778.376038 784.209656,774.096741 
	C772.222900,766.706421 760.130188,759.473450 748.354736,751.757996 
	C727.893433,738.351440 708.805481,723.286438 692.298889,705.042358 
	C685.748108,697.802063 678.107483,691.559692 671.194153,684.632324 
	C664.449829,677.874329 658.057068,670.766663 651.388916,663.930603 
	C649.230530,661.717896 646.808044,659.706421 644.264709,657.953491 
	C643.249878,657.254089 641.562744,657.282654 640.217529,657.398010 
	C639.340515,657.473267 638.555176,658.356995 637.682495,658.783752 
	C630.755005,662.170959 630.769775,662.145996 636.302490,667.757629 
	C657.766479,689.527893 679.070557,711.459534 700.806763,732.954285 
	C704.815247,736.918335 704.110352,741.528625 704.807983,745.774170 
	C707.615967,762.862244 709.703491,780.068909 712.017151,797.237244 
	C712.187500,798.501221 712.039612,799.808105 712.039612,802.689880 
	C705.483093,798.325073 699.894592,794.587219 694.288208,790.876221 
	C683.280518,783.589966 672.354187,776.174133 661.194641,769.127991 
	C657.777283,766.970337 655.720703,764.202881 654.234497,760.656006 
	C649.446533,749.229004 644.542053,737.850830 639.766907,726.418579 
	C633.461487,711.322571 627.269531,696.179138 620.947144,681.090210 
	C619.696350,678.105164 618.075562,675.275146 616.617737,672.358398 
	C609.876099,673.106995 605.805847,678.648376 608.134460,684.633728 
	C612.099609,694.825745 616.435913,704.873840 620.640808,714.972168 
	C624.955505,725.334290 629.347534,735.664490 633.619141,746.044312 
	C639.163147,759.516174 644.495361,773.077271 650.216248,786.472839 
	C651.461975,789.389709 651.115295,791.124329 649.227783,793.523376 
	C640.486267,804.633911 632.095581,816.020386 623.357544,827.133667 
	C613.784607,839.308777 603.903198,851.240967 594.294495,863.388428 
	C590.979431,867.579468 588.116882,872.126343 584.953857,876.442017 
	C584.422852,877.166443 583.412292,877.539429 582.351013,878.327515 
M457.684204,643.973999 
	C459.112061,644.259277 460.681213,644.255981 461.945618,644.875122 
	C472.914307,650.245972 483.904694,655.583313 494.711945,661.266663 
	C497.960114,662.974670 501.184235,665.297913 503.506683,668.096680 
	C512.767029,679.256042 520.200684,691.640381 526.069275,704.884033 
	C530.374756,714.600342 534.155457,724.549561 538.153442,734.401672 
	C542.190674,744.350464 546.142761,754.334717 550.304993,764.230774 
	C550.910522,765.670349 552.478333,766.705200 553.600830,767.927368 
	C554.702148,766.455200 556.154297,765.131836 556.851746,763.488281 
	C566.282288,741.265442 574.926880,718.677979 585.186768,696.848572 
	C592.667786,680.931580 601.752014,666.133057 618.737122,657.248474 
	C630.692871,650.994629 642.570557,645.368835 655.554810,641.805054 
	C659.617432,640.689880 664.713867,640.833801 666.972534,635.863220 
	C669.073242,631.239990 671.262634,626.656616 673.448059,622.072449 
	C674.589172,619.678772 673.868408,617.987671 671.268616,618.083069 
	C659.892151,618.500549 648.329712,618.043518 637.203430,620.000366 
	C624.042664,622.315125 611.260986,626.785828 597.955200,630.420288 
	C596.145935,626.008484 593.841797,621.024109 592.044800,615.863159 
	C589.174438,607.619690 585.376465,600.150208 578.747498,594.117615 
	C571.714294,587.717163 565.188782,580.758301 558.452271,574.032532 
	C554.439026,570.025696 552.686462,569.998901 548.615479,573.948425 
	C545.110046,577.349365 541.745483,580.910217 538.078613,584.126709 
	C530.904419,590.419556 523.944763,596.909119 519.830444,605.699036 
	C515.888977,614.119690 512.333618,622.721069 508.623962,631.207642 
	C505.559357,630.260376 502.711823,629.630005 500.064453,628.521606 
	C482.341400,621.101440 463.979492,617.359924 444.694489,617.986572 
	C433.124146,618.362549 432.888275,618.180054 437.109161,628.875671 
	C438.948029,633.535339 440.531952,638.905090 446.244537,640.687500 
	C449.774689,641.789001 453.403076,642.575500 457.684204,643.973999 
z"/>
<path fill="#000000" opacity="1.000000" stroke="none" 
	d="
M620.826904,456.767639 
	C621.486816,453.368988 622.881592,452.375000 626.091431,453.356720 
	C644.028137,458.842651 662.018677,464.152649 679.995911,469.505737 
	C691.739502,473.002716 703.497864,476.450104 715.232971,479.975220 
	C716.904785,480.477386 718.482178,481.293762 721.509705,482.546814 
	C675.539551,510.962341 632.528320,541.650818 590.260986,573.495667 
	C586.128906,569.855103 582.155457,566.674194 578.632690,563.054688 
	C577.581848,561.974976 576.973083,559.313721 577.549377,557.973938 
	C586.749451,536.585205 596.273682,515.336182 605.510620,493.962982 
	C610.775574,481.780426 615.655518,469.431396 620.826904,456.767639 
z"/>
<path fill="#000000" opacity="1.000000" stroke="none" 
	d="
M440.321899,518.789795 
	C422.326691,506.677979 404.640533,494.774231 386.146301,482.326599 
	C419.124451,472.267090 451.479340,462.397705 484.447174,452.341309 
	C488.087555,460.527740 491.685516,468.352448 495.062714,476.271332 
	C501.169586,490.590973 507.068207,504.999573 513.197632,519.309448 
	C518.628662,531.988892 524.279663,544.573975 529.782715,557.222839 
	C531.840881,561.953552 528.073669,564.347168 525.391235,566.841675 
	C522.883484,569.173767 519.824036,570.912598 517.197205,572.777710 
	C491.744690,554.899963 466.187836,536.948975 440.321899,518.789795 
z"/>
<path fill="#000000" opacity="1.000000" stroke="none" 
	d="
M470.871277,558.139709 
	C460.516571,553.553772 450.275574,548.685181 439.774963,544.462158 
	C429.463806,540.315308 418.876160,536.859131 408.434631,533.032227 
	C402.444092,530.836609 396.502808,528.506470 390.302399,526.146729 
	C391.559540,531.323120 413.929871,546.797852 431.586670,555.103943 
	C434.186981,567.996521 435.243622,581.231812 443.411133,592.295837 
	C443.078186,592.742737 442.745239,593.189636 442.412292,593.636536 
	C440.385651,592.354675 437.815399,591.492981 436.437195,589.709900 
	C432.716095,584.895874 429.531006,579.669983 426.075592,574.647095 
	C424.323822,572.100769 422.202576,569.780701 420.672058,567.115112 
	C415.328186,557.807922 407.562256,551.448303 397.883179,546.994934 
	C392.302094,544.427063 386.927124,541.326599 381.718079,538.054138 
	C373.527863,532.908813 364.400818,532.533203 355.217316,532.080566 
	C353.423859,531.992126 351.646454,531.577881 348.633820,531.132324 
	C360.162109,518.616211 370.716888,507.156982 382.009552,494.896667 
	C411.917328,515.646790 441.646729,536.273193 471.356628,557.336853 
	C471.181824,557.895996 471.026550,558.017822 470.871277,558.139709 
z"/>
<path fill="#000000" opacity="1.000000" stroke="none" 
	d="
M702.201050,511.274719 
	C710.160339,505.865112 717.882507,500.737915 726.084290,495.292297 
	C736.805847,507.295258 747.314331,519.059570 758.384583,531.452881 
	C753.289001,532.088928 749.675537,533.157654 746.174500,532.867920 
	C732.372131,531.725830 722.478088,540.365112 711.419739,546.142334 
	C707.320312,548.283997 703.063232,550.146301 699.083740,552.485962 
	C696.884827,553.778809 694.695618,555.494629 693.216309,557.537231 
	C685.168579,568.648743 677.408691,579.968689 669.353577,591.074707 
	C668.409058,592.377075 666.260254,592.805908 663.806824,594.091980 
	C666.852966,586.880188 669.865112,581.057800 671.760803,574.892212 
	C673.651733,568.742004 674.423828,562.247803 675.511780,556.781738 
	C689.263306,547.451782 702.872070,538.237854 716.425293,528.943115 
	C716.897461,528.619324 716.816833,527.489563 717.070740,526.407776 
	C703.496521,531.205566 690.166138,535.568176 677.106995,540.630554 
	C663.920776,545.742249 651.003479,551.547729 636.818665,557.534485 
	C640.695801,550.795593 647.558716,549.324219 652.308411,545.366821 
	C657.513672,541.029907 663.365906,537.469055 668.939697,533.575012 
	C674.372375,529.779602 679.749023,525.899841 685.261780,522.224365 
	C690.757080,518.560486 696.390930,515.104370 702.201050,511.274719 
z"/>
<path fill="#000000" opacity="1.000000" stroke="none" 
	d="
M446.760071,566.434692 
	C446.332184,564.820312 446.086609,563.594788 445.841003,562.369202 
	C446.197052,561.938171 446.553101,561.507202 446.909149,561.076233 
	C463.983154,570.282776 481.057159,579.489319 498.462616,588.874634 
	C486.726044,596.418152 475.685120,600.220703 463.617889,594.204895 
	C452.327087,588.576233 448.140808,578.606018 446.760071,566.434692 
z"/>
<path fill="#000000" opacity="1.000000" stroke="none" 
	d="
M643.159363,594.429504 
	C630.649536,600.228271 619.886292,595.699707 608.309265,588.955322 
	C625.793640,579.524902 642.841553,570.329956 660.342468,560.890625 
	C660.787170,572.489014 656.792542,587.798401 643.159363,594.429504 
z"/>
<path fill="#C7B4B3" opacity="1.000000" stroke="none" 
	d="
M631.307556,561.407959 
	C626.801697,564.315735 622.295837,567.223572 617.399353,570.071899 
	C617.008728,570.012390 616.958557,569.966675 616.958557,569.966675 
	C621.346008,566.966187 625.733459,563.965698 630.590576,561.024902 
	C631.060181,561.084473 631.307556,561.407959 631.307556,561.407959 
z"/>
<path fill="#CDC2C2" opacity="1.000000" stroke="none" 
	d="
M487.931641,569.952759 
	C485.123779,568.037598 482.619751,566.280640 480.115723,564.523621 
	C480.420898,564.059570 480.726074,563.595459 481.031250,563.131409 
	C484.329529,565.311462 487.627808,567.491577 490.926086,569.671631 
	C490.737671,570.038635 490.549255,570.405579 490.360840,570.772583 
	C489.652374,570.552063 488.943909,570.331482 487.931641,569.952759 
z"/>
<path fill="#C7B4B3" opacity="1.000000" stroke="none" 
	d="
M635.117432,559.236206 
	C634.057190,559.921570 632.996948,560.606934 631.622070,561.350098 
	C631.307556,561.407959 631.060181,561.084473 630.927002,560.928101 
	C631.645874,560.177795 632.498047,559.583740 633.956177,559.015381 
	C634.747253,559.106018 634.932312,559.171082 635.117432,559.236206 
z"/>
<path fill="#CDC2C2" opacity="1.000000" stroke="none" 
	d="
M477.767181,562.252441 
	C476.613983,561.849304 475.460754,561.446167 474.307556,561.043030 
	C474.461700,560.659180 474.615845,560.275330 474.769989,559.891541 
	C475.784851,560.353271 476.799713,560.815063 477.892700,561.658813 
	C477.970795,562.040894 477.767181,562.252441 477.767181,562.252441 
z"/>
<path fill="#000000" opacity="1.000000" stroke="none" 
	d="
M635.500854,559.140930 
	C634.932312,559.171082 634.747253,559.106018 634.276123,558.969238 
	C634.915283,558.142883 635.840515,557.388306 636.765747,556.633789 
	C637.013000,556.920593 637.260315,557.207397 637.507568,557.494141 
	C636.966492,558.011353 636.425354,558.528503 635.500854,559.140930 
z"/>
<path fill="#000000" opacity="1.000000" stroke="none" 
	d="
M471.586151,557.614014 
	C472.144135,557.913940 472.453064,558.374023 472.761993,558.834045 
	C472.208710,558.792358 471.655396,558.750610 470.986694,558.424316 
	C471.026550,558.017822 471.181824,557.895996 471.586151,557.614014 
z"/>
<path fill="#CDC2C2" opacity="1.000000" stroke="none" 
	d="
M478.075928,561.938477 
	C478.352905,562.032776 478.524780,562.229614 478.696655,562.426453 
	C478.476349,562.469971 478.256012,562.513428 477.901428,562.404663 
	C477.767181,562.252441 477.970795,562.040894 478.075928,561.938477 
z"/>
<path fill="#C7B4B3" opacity="1.000000" stroke="none" 
	d="
M617.031372,570.037659 
	C616.922302,570.076477 616.790649,570.090088 616.808716,570.035156 
	C616.958557,569.966675 617.008728,570.012390 617.031372,570.037659 
z"/>
<path fill="#CDC2C2" opacity="1.000000" stroke="none" 
	d="
M492.441162,571.523560 
	C492.414520,571.480042 492.467804,571.567139 492.441162,571.523560 
z"/>
<path fill="#F9F7F5" opacity="1.000000" stroke="none" 
	d="
M457.335785,643.738647 
	C453.403076,642.575500 449.774689,641.789001 446.244537,640.687500 
	C440.531952,638.905090 438.948029,633.535339 437.109161,628.875671 
	C432.888275,618.180054 433.124146,618.362549 444.694489,617.986572 
	C463.979492,617.359924 482.341400,621.101440 500.064453,628.521606 
	C502.711823,629.630005 505.559357,630.260376 508.623962,631.207642 
	C512.333618,622.721069 515.888977,614.119690 519.830444,605.699036 
	C523.944763,596.909119 530.904419,590.419556 538.078613,584.126709 
	C541.745483,580.910217 545.110046,577.349365 548.615479,573.948425 
	C552.686462,569.998901 554.439026,570.025696 558.452271,574.032532 
	C565.188782,580.758301 571.714294,587.717163 578.747498,594.117615 
	C585.376465,600.150208 589.174438,607.619690 592.044800,615.863159 
	C593.841797,621.024109 596.145935,626.008484 597.955200,630.420288 
	C611.260986,626.785828 624.042664,622.315125 637.203430,620.000366 
	C648.329712,618.043518 659.892151,618.500549 671.268616,618.083069 
	C673.868408,617.987671 674.589172,619.678772 673.448059,622.072449 
	C671.262634,626.656616 669.073242,631.239990 666.972534,635.863220 
	C664.713867,640.833801 659.617432,640.689880 655.554810,641.805054 
	C642.570557,645.368835 630.692871,650.994629 618.737122,657.248474 
	C601.752014,666.133057 592.667786,680.931580 585.186768,696.848572 
	C574.926880,718.677979 566.282288,741.265442 556.851746,763.488281 
	C556.154297,765.131836 554.702148,766.455200 553.600830,767.927368 
	C552.478333,766.705200 550.910522,765.670349 550.304993,764.230774 
	C546.142761,754.334717 542.190674,744.350464 538.153442,734.401672 
	C534.155457,724.549561 530.374756,714.600342 526.069275,704.884033 
	C520.200684,691.640381 512.767029,679.256042 503.506683,668.096680 
	C501.184235,665.297913 497.960114,662.974670 494.711945,661.266663 
	C483.904694,655.583313 472.914307,650.245972 461.945618,644.875122 
	C460.681213,644.255981 459.112061,644.259277 457.335785,643.738647 
M530.307373,610.068604 
	C525.321655,622.412109 520.335999,634.755615 515.289307,647.250122 
	C497.459473,641.019531 480.985229,632.319336 462.185150,631.367004 
	C478.490814,636.097717 492.703094,644.828857 506.514465,654.293091 
	C509.054321,656.033508 511.756927,657.931763 513.485413,660.389404 
	C519.583008,669.059326 525.920532,677.660034 530.979004,686.934937 
	C536.824890,697.653625 541.413513,709.058105 546.254944,719.530884 
	C546.375122,718.849609 546.952515,716.991943 546.987183,715.124207 
	C547.110718,708.475220 547.053345,701.822876 547.057373,695.171753 
	C547.071045,672.850647 546.758911,650.521545 547.310059,628.213806 
	C547.456299,622.295227 550.202454,616.427063 551.957458,610.596558 
	C552.063599,610.243835 554.820190,610.150146 554.905396,610.409058 
	C556.723755,615.935852 559.674744,621.508972 559.764526,627.115356 
	C560.239258,656.762390 559.983643,686.421143 559.981262,716.075806 
	C559.981140,717.605164 559.981262,719.134583 559.981262,719.622803 
	C567.139709,705.358582 574.033020,690.210815 582.257690,675.824158 
	C586.428345,668.528870 592.765869,662.386780 598.592041,656.161560 
	C601.294250,653.274292 604.972595,651.189026 608.456238,649.167175 
	C616.660461,644.405334 624.927734,639.734253 633.349487,635.374207 
	C636.613281,633.684448 640.362793,632.932739 645.076111,631.357727 
	C643.226196,631.081421 642.725708,630.886353 642.264771,630.955322 
	C628.923157,632.953247 616.237732,637.138489 604.105042,642.916748 
	C592.598145,648.397034 592.664185,648.551636 587.636719,637.138000 
	C587.318970,636.416687 587.305725,635.563049 586.998535,634.835083 
	C583.412781,626.336548 580.979370,617.041443 575.870911,609.579651 
	C570.337769,601.497437 562.353271,595.076904 555.274475,588.097412 
	C554.635071,587.467041 552.255493,587.501831 551.605896,588.150635 
	C544.578735,595.169128 537.736389,602.372620 530.307373,610.068604 
z"/>
<path fill="#000000" opacity="1.000000" stroke="none" 
	d="
M530.575439,609.797119 
	C537.736389,602.372620 544.578735,595.169128 551.605896,588.150635 
	C552.255493,587.501831 554.635071,587.467041 555.274475,588.097412 
	C562.353271,595.076904 570.337769,601.497437 575.870911,609.579651 
	C580.979370,617.041443 583.412781,626.336548 586.998535,634.835083 
	C587.305725,635.563049 587.318970,636.416687 587.636719,637.138000 
	C592.664185,648.551636 592.598145,648.397034 604.105042,642.916748 
	C616.237732,637.138489 628.923157,632.953247 642.264771,630.955322 
	C642.725708,630.886353 643.226196,631.081421 645.076111,631.357727 
	C640.362793,632.932739 636.613281,633.684448 633.349487,635.374207 
	C624.927734,639.734253 616.660461,644.405334 608.456238,649.167175 
	C604.972595,651.189026 601.294250,653.274292 598.592041,656.161560 
	C592.765869,662.386780 586.428345,668.528870 582.257690,675.824158 
	C574.033020,690.210815 567.139709,705.358582 559.981262,719.622803 
	C559.981262,719.134583 559.981140,717.605164 559.981262,716.075806 
	C559.983643,686.421143 560.239258,656.762390 559.764526,627.115356 
	C559.674744,621.508972 556.723755,615.935852 554.905396,610.409058 
	C554.820190,610.150146 552.063599,610.243835 551.957458,610.596558 
	C550.202454,616.427063 547.456299,622.295227 547.310059,628.213806 
	C546.758911,650.521545 547.071045,672.850647 547.057373,695.171753 
	C547.053345,701.822876 547.110718,708.475220 546.987183,715.124207 
	C546.952515,716.991943 546.375122,718.849609 546.254944,719.530884 
	C541.413513,709.058105 536.824890,697.653625 530.979004,686.934937 
	C525.920532,677.660034 519.583008,669.059326 513.485413,660.389404 
	C511.756927,657.931763 509.054321,656.033508 506.514465,654.293091 
	C492.703094,644.828857 478.490814,636.097717 462.185150,631.367004 
	C480.985229,632.319336 497.459473,641.019531 515.289307,647.250122 
	C520.335999,634.755615 525.321655,622.412109 530.575439,609.797119 
M530.907166,620.610352 
	C530.508057,622.950134 530.109009,625.289856 529.684021,627.781128 
	C533.779297,627.353821 541.304382,620.651733 540.844238,617.661194 
	C540.545959,615.722656 538.781433,613.788330 537.183533,612.428162 
	C536.788025,612.091553 534.151184,613.720215 533.151611,614.942017 
	C532.076416,616.256226 531.715088,618.154541 530.907166,620.610352 
M576.025635,622.221191 
	C575.195496,619.482361 574.668335,616.588562 573.385925,614.081055 
	C572.873596,613.079224 569.861267,612.103882 569.427063,612.542358 
	C567.958862,614.025208 565.766846,617.128418 566.292725,617.861877 
	C569.276428,622.023010 572.969116,625.675720 576.420532,629.501465 
	C576.781799,629.193481 577.143127,628.885437 577.504456,628.577454 
	C577.103149,626.716370 576.701904,624.855286 576.025635,622.221191 
z"/>
<path fill="#F6F1F0" opacity="1.000000" stroke="none" 
	d="
M530.974731,620.204163 
	C531.715088,618.154541 532.076416,616.256226 533.151611,614.942017 
	C534.151184,613.720215 536.788025,612.091553 537.183533,612.428162 
	C538.781433,613.788330 540.545959,615.722656 540.844238,617.661194 
	C541.304382,620.651733 533.779297,627.353821 529.684021,627.781128 
	C530.109009,625.289856 530.508057,622.950134 530.974731,620.204163 
z"/>
<path fill="#F9F6F4" opacity="1.000000" stroke="none" 
	d="
M576.163086,622.607666 
	C576.701904,624.855286 577.103149,626.716370 577.504456,628.577454 
	C577.143127,628.885437 576.781799,629.193481 576.420532,629.501465 
	C572.969116,625.675720 569.276428,622.023010 566.292725,617.861877 
	C565.766846,617.128418 567.958862,614.025208 569.427063,612.542358 
	C569.861267,612.103882 572.873596,613.079224 573.385925,614.081055 
	C574.668335,616.588562 575.195496,619.482361 576.163086,622.607666 
z"/>
</svg>